<svg id="ornament_divider5" data-name="Layer 1" xmlns="http://www.w3.org/2000/svg" width="255.12" height="23.4" viewBox="0 0 255.12 23.4"><title>ornament_divider5</title><path d="M177.6,20.76A22.93,22.93,0,0,1,161.87,16s0-.08,0-.06a21.91,21.91,0,0,0,15.53,3.57l1-.2c-4-.11-8.27-1.76-11.58-3.16-3.88-1.65-7.27-4.19-11-6.11a37,37,0,0,0-10.64-3.87c-6-1-13.4-.79-16.82,5.13-1.58,2.74-1.68,6.61.55,9A6.74,6.74,0,0,0,133,22.45c1.57.14,2.13-.31,3-1.5.08-.09-.07-.2-.15-.15-1.5.77-3.57-.37-4.54-1.44a5.4,5.4,0,0,1-1.41-4.61c.5-3.12,3.21-5.07,6.06-5.87,6.15-1.74,12.16,1.29,17.15,4.59,5.33,3.52,11,7.62,17.49,8.36,4.56.52,10.47.18,14.06-3.09A18.76,18.76,0,0,1,177.6,20.76Z" transform="translate(0 0)"/><path d="M187.42,4.28c-1.84-4.27-8.19-6-11.34-2.12-2.47,3-.64,7.52,3.2,6.5a3.47,3.47,0,0,1-2.37-3.2c.08-2.21,2.28-3.54,4.35-3.35a4.54,4.54,0,0,1,4,4.25,0,0,0,0,1-.06,0c-.7-1.34-2.28-2.88-3.92-2.71l-.27,0a4.1,4.1,0,0,1,2.67,1.68c1,1.3.76,3,.37,4.49-1.35,5.26-8.54,5.92-13,5.83a0,0,0,0,0,0,0c3.93,1.59,7.87,2.15,11.83.24S189.19,8.4,187.42,4.28Z" transform="translate(0 0)"/><path d="M146.72,14.77c-1.59-4.44-6.57-5.87-10.62-4A6.9,6.9,0,0,0,132.37,15c-.59,1.76,0,3.52,1.85,3.91a.05.05,0,0,0,.06-.08c-1.33-2.6,0-5.13,2.59-6.16s5.32-.47,6.76,2.07a4.14,4.14,0,0,1-.59,4.9c1.87-.95,1.87-3.89.75-5.56,0-.06.06-.13.1-.07,2.42,2.52,1.41,8-2.75,7.74a3,3,0,0,1-2.78-2.79,3,3,0,0,1,1.25-2.35,3,3,0,0,0-2.22,3.13,4.06,4.06,0,0,0,3.5,3.57C145.68,24.24,148.06,18.52,146.72,14.77Z" transform="translate(0 0)"/><path d="M212.09,5.46c-2.71-2-6.69-2.66-10-2.63a15.85,15.85,0,0,0-9.87,3.34c-2.64,2.14-4,6-2.2,9,1.07,1.81,6,3.33,6.83.43a.94.94,0,0,0-.06-.67,4.29,4.29,0,0,1-5-.37c-2.18-2-1.6-4.94.59-6.58,0,0,0,0,0,0a4.19,4.19,0,0,0-.82,4.14c-.09-2,1.56-3.82,3.09-4.88,3.7-2.58,9-2.7,13.2-1.32,3.78,1.26,5.71,5.92,3,9.15-1.06,1.27-3.22,2.19-4.81,1.38l-.2-.12a2.06,2.06,0,0,0,.6,1c.94.83,2.36.59,3.46.26,0,0,.05,0,0,.06-1.2.82-2.79,1.4-4.14.53A4,4,0,0,1,204.08,15a4.35,4.35,0,0,1,1.42-3.53,3.44,3.44,0,0,1,2.64-.62.76.76,0,0,0-.21-.28c-2.76-2.43-6.42,1.07-6.66,4-.36,4.19,3.65,6.62,7.37,6C216.21,19.36,218,9.84,212.09,5.46Zm-6.2-1.2a26.49,26.49,0,0,0-6.45.09.16.16,0,0,1-.09-.32,10.16,10.16,0,0,1,6.55.09C206,4.15,206,4.26,205.89,4.25Zm5.86,12.29c-.1.1-.3,0-.2-.16,1.58-2.08,2.59-4.78,1.19-7.25a11.25,11.25,0,0,0-5-4.29c-.2-.1-.06-.43.15-.36,2.47.89,5.16,2.47,6.12,5.07S213.57,14.66,211.75,16.54Z" transform="translate(0 0)"/><path d="M231.61.68c-3,.2-4.88,2.31-4.45,5.28.32,2.19,3.4,3.81,4.83,2.11a2.41,2.41,0,0,1-1.86-1.66,3.32,3.32,0,0,1,2.08-3.83,4.4,4.4,0,0,1,5,2.74c.65,2.32-.8,4.6-2.48,6.1a0,0,0,0,1,0,0c1-1.23,2-3,1.78-4.63a3.14,3.14,0,0,0-2.75-2.55,3.32,3.32,0,0,1,2.1,2.33,6,6,0,0,1-1.52,5c-1.57,1.81-4.23,2.07-6.47,1.76-4.93-.69-9.06-3.85-13.06-6.53-3-2-6.75-4.1-10.33-3.09a7.68,7.68,0,0,1,1.44.43c.06,0,.06.13,0,.13-.84-.05-1.68-.11-2.53-.14l-.41.21a.12.12,0,0,0,.09.21,8.33,8.33,0,0,1,5.14.54l-.46-.24c-.2-.1-.06-.43.15-.36a11.25,11.25,0,0,1,5.33,3.61c2.75,2.06,5.24,4.36,8.26,6.08,5.46,3.11,13.52,3.81,16.79-2.62C240.92,6.27,237.78.25,231.61.68Z" transform="translate(0 0)"/><path d="M252.4,9.81c-2.23-1.71-5.85-1.56-8.31-.5-2.19.94-4.82,2.58-4.85,5.22a.06.06,0,0,0,.1,0,12.47,12.47,0,0,1,7.81-3.44c2.49-.11,6.62,2.39,4.07,5.15a2.37,2.37,0,0,1-1.09.44,1.44,1.44,0,0,0,.54.31,2.78,2.78,0,0,0,2-.18.1.1,0,0,1,.11.15,3.17,3.17,0,0,1-2.52,1.3A3.26,3.26,0,0,1,248,17.24a2.47,2.47,0,0,1-.35-2.73A2.19,2.19,0,0,1,248,14a2.06,2.06,0,0,0-2.33,1.75A3.91,3.91,0,0,0,247,19.31c2.38,2.24,6.13.73,7.47-1.89S254.71,11.58,252.4,9.81Z" transform="translate(0 0)"/><path d="M77.52,20.76A22.92,22.92,0,0,0,93.25,16s0-.08,0-.06a21.91,21.91,0,0,1-15.53,3.57l-1-.2c4-.11,8.28-1.76,11.58-3.16,3.88-1.65,7.27-4.19,11-6.11a37,37,0,0,1,10.64-3.87c6-1,13.4-.79,16.83,5.13,1.58,2.74,1.68,6.61-.55,9a6.74,6.74,0,0,1-4.07,2.13c-1.57.14-2.13-.31-3-1.5-.07-.09.07-.2.16-.15,1.5.77,3.57-.37,4.54-1.44a5.41,5.41,0,0,0,1.41-4.61c-.51-3.12-3.21-5.07-6.06-5.87C113,7.14,107,10.17,102,13.47,96.67,17,91,21.09,84.51,21.83c-4.56.52-10.48.18-14.06-3.09A18.74,18.74,0,0,0,77.52,20.76Z" transform="translate(0 0)"/><path d="M67.7,4.28C69.53,0,75.89-1.72,79,2.16c2.47,3,.64,7.52-3.2,6.5a3.48,3.48,0,0,0,2.37-3.2c-.08-2.21-2.28-3.54-4.35-3.35a4.54,4.54,0,0,0-4,4.25,0,0,0,0,0,.06,0c.7-1.34,2.28-2.88,3.92-2.71l.27,0a4.12,4.12,0,0,0-2.67,1.68c-1,1.3-.76,3-.37,4.49,1.35,5.26,8.54,5.92,13,5.83a0,0,0,0,1,0,0c-3.93,1.59-7.87,2.15-11.83.24S65.93,8.4,67.7,4.28Z" transform="translate(0 0)"/><path d="M108.4,14.77C110,10.33,115,8.9,119,10.81A6.87,6.87,0,0,1,122.74,15c.6,1.76,0,3.52-1.85,3.91a.05.05,0,0,1-.06-.08c1.33-2.6,0-5.13-2.6-6.16s-5.32-.47-6.75,2.07a4.15,4.15,0,0,0,.58,4.9c-1.86-.95-1.87-3.89-.75-5.56,0-.06,0-.13-.1-.07-2.42,2.52-1.4,8,2.75,7.74a3,3,0,0,0,2.77-2.79,2.94,2.94,0,0,0-1.25-2.35,3,3,0,0,1,2.22,3.13,4.07,4.07,0,0,1-3.5,3.57C109.44,24.24,107.05,18.52,108.4,14.77Z" transform="translate(0 0)"/><path d="M46.48,20.55c3.72.59,7.72-1.84,7.37-6-.24-2.89-3.91-6.39-6.67-4a.82.82,0,0,0-.21.28,3.44,3.44,0,0,1,2.65.62A4.34,4.34,0,0,1,51,15a4,4,0,0,1-1.78,3.21c-1.35.87-2.94.29-4.14-.53a0,0,0,0,1,0-.06c1.09.33,2.52.57,3.46-.26a2.12,2.12,0,0,0,.61-1l-.2.12c-1.58.8-3.74-.11-4.81-1.38-2.7-3.23-.77-7.89,3-9.15,4.16-1.38,9.5-1.25,13.2,1.32,1.52,1.06,3.18,2.9,3.08,4.88A4.18,4.18,0,0,0,62.68,8s0,0,0,0c2.19,1.65,2.77,4.61.59,6.58a4.28,4.28,0,0,1-5,.37,1,1,0,0,0-.07.67c.8,2.9,5.76,1.39,6.83-.43,1.81-3.09.45-6.9-2.19-9A15.85,15.85,0,0,0,53,2.83c-3.28,0-7.26.62-10,2.63C37.13,9.84,38.91,19.36,46.48,20.55ZM49.21,4.12A10.15,10.15,0,0,1,55.77,4a.16.16,0,0,1-.08.32,26.51,26.51,0,0,0-6.45-.09C49.15,4.26,49.15,4.15,49.21,4.12ZM41.13,9.55c1-2.6,3.66-4.18,6.12-5.07.21-.07.35.26.15.36a11.27,11.27,0,0,0-5,4.29c-1.4,2.47-.39,5.17,1.2,7.25.09.12-.1.26-.21.16C41.55,14.66,40.15,12.18,41.13,9.55Z" transform="translate(0 0)"/><path d="M23.51.68C26.49.89,28.4,3,28,6c-.32,2.19-3.4,3.81-4.83,2.11A2.41,2.41,0,0,0,25,6.41a3.32,3.32,0,0,0-2.08-3.83,4.41,4.41,0,0,0-5,2.74c-.65,2.32.81,4.6,2.48,6.1a0,0,0,0,0,0,0c-1-1.23-2-3-1.78-4.63A3.14,3.14,0,0,1,21.37,4.2a3.33,3.33,0,0,0-2.1,2.33,6,6,0,0,0,1.52,5c1.56,1.81,4.23,2.07,6.47,1.76,4.93-.69,9.05-3.85,13.06-6.53,3-2,6.75-4.1,10.33-3.09a7.68,7.68,0,0,0-1.44.43c-.06,0-.06.13,0,.13.84-.05,1.68-.11,2.53-.14l.41.21a.11.11,0,0,1-.09.21,8.33,8.33,0,0,0-5.14.54l.46-.24c.2-.1.06-.43-.15-.36a11.24,11.24,0,0,0-5.33,3.61c-2.76,2.06-5.24,4.36-8.26,6.08C28.2,17.28,20.14,18,16.87,11.55,14.2,6.27,17.34.25,23.51.68Z" transform="translate(0 0)"/><path d="M2.71,9.81C5,8.1,8.56,8.25,11,9.31c2.19.94,4.82,2.58,4.84,5.22a.06.06,0,0,1-.09,0A12.49,12.49,0,0,0,8,11.12C5.47,11,1.34,13.51,3.89,16.27A2.38,2.38,0,0,0,5,16.71a1.4,1.4,0,0,1-.53.31,2.79,2.79,0,0,1-2.05-.18.1.1,0,0,0-.12.15A3.18,3.18,0,0,0,4.8,18.3a3.27,3.27,0,0,0,2.36-1.06,2.48,2.48,0,0,0,.35-2.73A2.12,2.12,0,0,0,7.14,14,2,2,0,0,1,9.46,15.8a3.89,3.89,0,0,1-1.38,3.51C5.69,21.55,1.94,20,.6,17.42S.4,11.58,2.71,9.81Z" transform="translate(0 0)"/></svg>