<svg id="SvgjsSvg1001" width="288" height="288" xmlns="http://www.w3.org/2000/svg" version="1.1" xmlns:xlink="http://www.w3.org/1999/xlink" xmlns:svgjs="http://svgjs.com/svgjs"><defs id="SvgjsDefs1002"></defs><g id="SvgjsG1008"><svg xmlns="http://www.w3.org/2000/svg" data-name="Layer 1" viewBox="0 0 204.09 24.53" width="288" height="288"><path d="M139,12.23h0c-.2-2.31-2.73-2.85-4.61-2.43-1,.22-1.81.56-2.66.81,0-.26-.05-.52-.09-.78a2.65,2.65,0,0,0,1.11-2c.07-.73.08-1.45-.57-1.88a1,1,0,0,0-1,0,.56.56,0,0,0-.24.27c.47.12.38.76.14,1.16a1.11,1.11,0,0,0-1-.74.38.38,0,0,0,0,.77c.15,0,.28.16.39.41a2.14,2.14,0,0,1-2-.71,22.37,22.37,0,0,0-1.62-1.89A7.74,7.74,0,0,0,126,4.5a3.27,3.27,0,0,0-.85-.44,6.17,6.17,0,0,0,.07,2c.48,1.93,1.5,3.92,3.71,4.31a3.86,3.86,0,0,0,2-.16c0,.21,0,.4,0,.59a5.68,5.68,0,0,1-2.66-.07c-4.33-1.12-5.27-8-10.56-6.5a6.51,6.51,0,0,0,2.07,4.12c-1.87-1.14-2.9-3.16-4.93-4s-3.74-.48-5.94-.54a4.27,4.27,0,0,0,.63,1.75c-1.33-.25-4.69-1.35-3.17-3.24a.76.76,0,0,1,1.08.14c.16-2.89-3.55-3.2-5.44-1.21-1.89-2-5.6-1.68-5.44,1.21a.76.76,0,0,1,1.08-.14c1.52,1.89-1.83,3-3.17,3.24a4.22,4.22,0,0,0,.63-1.75c-2.19.07-3.89-.31-5.94.54s-3.06,2.86-4.92,4a6.51,6.51,0,0,0,2.06-4.12c-5.28-1.48-6.22,5.37-10.55,6.5a5.69,5.69,0,0,1-2.67.07c0-.19,0-.39,0-.59a3.88,3.88,0,0,0,2,.16C77.4,10,78.42,8,78.9,6.08a6.18,6.18,0,0,0,.07-2,3.2,3.2,0,0,0-.85.44,7.31,7.31,0,0,0-.93.71A21.59,21.59,0,0,0,75.56,7.1a2.14,2.14,0,0,1-2,.71c.11-.25.23-.4.39-.41a.38.38,0,0,0,0-.77,1.12,1.12,0,0,0-1,.74c-.24-.4-.32-1,.14-1.16A.57.57,0,0,0,72.88,6a1,1,0,0,0-1,0c-.65.43-.64,1.16-.57,1.88a2.66,2.66,0,0,0,1.11,2c0,.26-.07.52-.09.78-.85-.25-1.69-.59-2.66-.81-1.89-.42-4.41.12-4.61,2.43h0s0,0,0,0a.23.23,0,0,0,0,0h0c.2,2.31,2.73,2.85,4.61,2.43,1-.22,1.81-.56,2.66-.81,0,.26.05.52.09.78a2.66,2.66,0,0,0-1.11,2c-.07.73-.08,1.45.57,1.88a1,1,0,0,0,1,0,.56.56,0,0,0,.24-.26c-.47-.12-.38-.76-.14-1.16a1.12,1.12,0,0,0,1,.74.38.38,0,0,0,0-.77c-.15,0-.28-.16-.39-.41a2.14,2.14,0,0,1,2,.71,21.79,21.79,0,0,0,1.62,1.89,7.27,7.27,0,0,0,.93.71,3.08,3.08,0,0,0,.85.44,6.17,6.17,0,0,0-.07-2c-.48-1.93-1.5-3.92-3.71-4.32a3.91,3.91,0,0,0-2,.16c0-.2,0-.4,0-.59a5.67,5.67,0,0,1,2.67.07c4.33,1.12,5.27,8,10.55,6.5a6.51,6.51,0,0,0-2.06-4.12c1.87,1.14,2.9,3.17,4.92,4s3.74.48,5.94.54A4.23,4.23,0,0,0,94.52,19c1.33.25,4.69,1.35,3.17,3.25a.76.76,0,0,1-1.08-.14c-.16,2.89,3.54,3.2,5.44,1.21,1.89,2,5.6,1.68,5.44-1.21a.76.76,0,0,1-1.08.14c-1.52-1.89,1.83-3,3.17-3.25a4.29,4.29,0,0,0-.63,1.75c2.19-.07,3.89.31,5.94-.54s3.06-2.87,4.93-4a6.52,6.52,0,0,0-2.07,4.12c5.28,1.48,6.22-5.37,10.56-6.5a5.66,5.66,0,0,1,2.66-.07c0,.19,0,.39,0,.59a3.9,3.9,0,0,0-2-.16c-2.21.4-3.23,2.38-3.71,4.32a6.16,6.16,0,0,0-.07,2A3.15,3.15,0,0,0,126,20a7.7,7.7,0,0,0,.93-.71,22.58,22.58,0,0,0,1.62-1.89,2.14,2.14,0,0,1,2-.71c-.1.25-.23.4-.39.41a.38.38,0,0,0,0,.77,1.11,1.11,0,0,0,1-.74c.24.4.33,1-.14,1.16a.55.55,0,0,0,.24.26,1,1,0,0,0,1,0c.64-.44.64-1.15.57-1.88a2.65,2.65,0,0,0-1.11-2c0-.26.07-.52.09-.78.84.25,1.68.59,2.66.81,1.89.42,4.42-.12,4.61-2.43h0v-.07ZM130,9c-2,.48-3.21-1.62-3.94-3.09,0,0,0,0,0,0a15.66,15.66,0,0,0,1.55,2,3.8,3.8,0,0,0,2.38,1A.09.09,0,0,1,130,9ZM74.12,8.82a3.8,3.8,0,0,0,2.37-1,15,15,0,0,0,1.55-2s0,0,0,0C77.33,7.37,76.13,9.47,74.12,9A.09.09,0,0,1,74.12,8.82Zm-6.21,1.89a.35.35,0,0,1,.16-.2.26.26,0,0,1,.3,0,.29.29,0,0,1,.1.22.15.15,0,0,1-.11.14.26.26,0,0,1-.1.05h-.08C68,11,67.85,10.87,67.91,10.71ZM69,14.14A2.62,2.62,0,0,1,65.67,12s0,0,0,0C65.8,13.63,67.64,14.16,69,14,69.07,14,69.09,14.13,69,14.14Zm1.45-2.83c-.11.07-.3,0-.42,0a1.38,1.38,0,0,1-.84-.25.26.26,0,0,1,.05-.4,1,1,0,0,1,.85.11c.19.11.44.19.46.43C70.58,11.24,70.51,11.3,70.48,11.32Zm3.44,3.84a2.77,2.77,0,0,1,2.35.89,5.12,5.12,0,0,1,1.43,2.33,0,0,0,0,1-.07,0,5.33,5.33,0,0,0-1.54-2.16,4.5,4.5,0,0,0-2.17-.9A.09.09,0,0,1,73.93,15.16Zm45.83-9.5a0,0,0,1,1,0,0c1.64.87,2.74,2.61,3.79,4.07.08.1-.07.19-.16.12C121.94,8.67,121.33,6.72,119.75,5.66Zm-8,0a10.18,10.18,0,0,1,5,2.29c.13.1,0,.3-.17.22a22.74,22.74,0,0,0-4.86-2.48A0,0,0,0,1,111.76,5.62Zm-7.7-3.52s0,0,0,0c-1.82,2.18,1,4.09,2.74,5,2.54,1.33,5.64,1.67,8.43,2.11.13,0,.1.23,0,.22a19.93,19.93,0,0,1-9.53-2.54C104,5.87,102,3.85,104.06,2.1Zm-2,15a8.18,8.18,0,0,0-5.61-2.76A56,56,0,0,0,102,14.2a56,56,0,0,0,5.61.15A8.18,8.18,0,0,0,102,17.11Zm0-9.68a8.18,8.18,0,0,0,5.61,2.76,56,56,0,0,0-5.61.15,56,56,0,0,0-5.61-.15A8.18,8.18,0,0,0,102,7.42ZM98.16,12.1l-.17.14h-.08l0,0,0,0H98l.09.08-2,0c-2.34,0-4.72.14-7,0a.14.14,0,0,1,0-.28c2.33-.16,4.71,0,7,0Zm5,.13a0,0,0,0,1,0,0l-1.12,0-1.12,0a0,0,0,0,1,0,0l1.12,0Zm2.84.15.09-.08h.08l0,0,0,0h-.08l-.17-.14,2,0c2.33,0,4.71-.14,7,0a.14.14,0,0,1,0,.28c-2.34.17-4.72,0-7,0ZM97.28,7.13c1.77-.92,4.56-2.83,2.74-5,0,0,0,0,0,0,2,1.74.06,3.77-1.63,4.83a19.93,19.93,0,0,1-9.53,2.54c-.13,0-.16-.2,0-.22C91.64,8.8,94.74,8.46,97.28,7.13Zm-10,.78a10.21,10.21,0,0,1,5-2.29s0,0,0,0a22.84,22.84,0,0,0-4.87,2.48C87.34,8.21,87.18,8,87.31,7.91ZM80.53,9.68c1.06-1.46,2.15-3.2,3.79-4.07a0,0,0,1,1,0,0c-1.58,1.06-2.19,3-3.66,4.15C80.6,9.87,80.45,9.79,80.53,9.68Zm4,9.46s0,.05,0,0c-.7-.74-1.34-1.54-2.06-2.26a24,24,0,0,0-2.12-1.76c-.11-.09,0-.27.14-.23a5.53,5.53,0,0,1,2.24,1.74A16.73,16.73,0,0,1,84.48,19.14Zm1.62-5.9a.64.64,0,0,0,.47.14c-.09.64-1.21.54-1.67.58a.37.37,0,0,0,.37.19c-.22.82-1.6.71-2.15.43a3.24,3.24,0,0,0,.18.38c-1.39.66-1.88-1.25-2.77-1.68.12.19.31.41.27.66-1.29.07-1.49-1.16-2.44-1.68H79s4,1.15,4.61,1.15a1.15,1.15,0,1,0,0-2.31C83,11.11,79,12.27,79,12.27h-.62c1-.52,1.15-1.74,2.44-1.68,0,.25-.16.47-.27.66.9-.43,1.39-2.34,2.77-1.68a3.13,3.13,0,0,0-.18.38c.55-.28,1.92-.39,2.15.43a.37.37,0,0,0-.37.19c.46,0,1.58-.06,1.67.58a.64.64,0,0,0-.47.14,2.53,2.53,0,0,1,.91.39c.22.16.42.38.64.55h.13l-.06,0,.06,0h-.13c-.22.16-.42.38-.64.55A2.53,2.53,0,0,1,86.1,13.24Zm7,6.05a4.39,4.39,0,0,1-2.83-.48,8.26,8.26,0,0,1-2.91-1.94.13.13,0,0,1,.16-.2c.92.51,1.68,1.26,2.65,1.72a10.78,10.78,0,0,0,2.93.88A0,0,0,0,1,93,19.29Zm7.44,1.91a0,0,0,1,1,0,0c-.1-2.55-2.22-3.4-4.34-4.17-2.27-.82-4.62-1.42-7-2a.14.14,0,0,1,.07-.27,42.44,42.44,0,0,1,8.57,2.58C99.53,18.1,100.59,19.23,100.49,21.21ZM108,17c-2.12.77-4.25,1.62-4.35,4.17a0,0,0,1,1,0,0c-.1-2,1-3.1,2.68-3.9a42.54,42.54,0,0,1,8.58-2.58.14.14,0,0,1,.07.27C112.59,15.61,110.24,16.21,108,17Zm8.81-.16a8.31,8.31,0,0,1-2.91,1.94,4.39,4.39,0,0,1-2.82.48,0,0,0,0,1,0,0,10.85,10.85,0,0,0,2.93-.88c1-.46,1.73-1.21,2.65-1.72A.13.13,0,0,1,116.78,16.88Zm7.05-1.72a24.61,24.61,0,0,0-2.12,1.76c-.72.72-1.36,1.52-2.06,2.26,0,0-.05,0,0,0a16.93,16.93,0,0,1,1.84-2.48,5.52,5.52,0,0,1,2.24-1.74C123.82,14.88,123.95,15.07,123.83,15.15Zm1.28-2.89s-4-1.15-4.61-1.15a1.15,1.15,0,1,0,0,2.31c.63,0,4.61-1.15,4.61-1.15h.62c-1,.52-1.15,1.75-2.44,1.68,0-.25.16-.47.28-.66-.9.43-1.39,2.33-2.77,1.68a3.26,3.26,0,0,0,.18-.38c-.55.28-1.92.39-2.15-.43a.37.37,0,0,0,.37-.19c-.45,0-1.58.06-1.67-.58a.63.63,0,0,0,.47-.14,2.53,2.53,0,0,1-.91-.38c-.22-.16-.42-.38-.64-.55h-.13l.07,0-.07,0h.13c.22-.16.42-.38.64-.55a2.53,2.53,0,0,1,.91-.39.63.63,0,0,0-.47-.14c.09-.64,1.22-.54,1.67-.58a.37.37,0,0,0-.37-.19c.22-.82,1.6-.71,2.15-.43a3.15,3.15,0,0,0-.18-.38c1.39-.66,1.87,1.24,2.77,1.68-.12-.19-.31-.41-.28-.66,1.29-.07,1.49,1.15,2.44,1.68Zm5.05,3.06a4.52,4.52,0,0,0-2.17.9,5.32,5.32,0,0,0-1.54,2.16s-.09,0-.07,0a5.09,5.09,0,0,1,1.43-2.33,2.76,2.76,0,0,1,2.35-.89A.09.09,0,0,1,130.17,15.33Zm5.56-4.79a.25.25,0,0,1,.3,0,.34.34,0,0,1,.15.2c.06.17-.12.3-.26.27h-.08l-.1-.05a.15.15,0,0,1-.11-.14A.3.3,0,0,1,135.73,10.54Zm-.85.53a1.38,1.38,0,0,1-.84.25c-.12,0-.31.06-.42,0s-.1-.07-.1-.11c0-.24.26-.32.46-.43a1,1,0,0,1,.85-.11A.26.26,0,0,1,134.87,11.07Zm.19,3.07c-.05,0,0-.11,0-.1,1.37.12,3.21-.41,3.32-2.06a0,0,0,0,1,0,0A2.62,2.62,0,0,1,135.06,14.14Z" fill="#bd8a39" class="color000 svgShape"></path><polygon points="138.4 11.12 204.09 12.27 138.4 13.42 138.4 11.12" fill="#bd8a39" class="color000 svgShape"></polygon><polygon points="65.69 11.12 0 12.27 65.69 13.42 65.69 11.12" fill="#bd8a39" class="color000 svgShape"></polygon></svg></g></svg>